PathFileType	4	(X/Y/Z)	/Users/itak/Documents/Research/Walk-IL/dataset/trc/00488_00167.trc
DataRate	CameraRate	NumFrames	NumMarkers	Units	OrigDataRate	OrigDataStartFrame	OrigNumFrames
100.000000	100.000000	4	53	mm	100.000000	68	546
Frame#	Time	RPSI			LPSI			L3			STRN			T10			C7			CLAV			RBAK			LBAK			LSHO			LUPA			LAEL			LAOL			LWTS			LWPS			LFRA			LIFD			LHPS			LHTS			RSHO			RUPA			RAEL			RAOL			RWTS			RWPS			RFRA			RIFD			RHTS			RHPS			RBHD			LFHD			RFHD			LBHD			LHIP			RHIP			RASI			LASI			LKNE			LTHI			LANK			LTIP			LTOE			LMT1			LMT5			LHEE			RKNE			RTHI			RANK			RTIP			RTOE			RMT1			RMT5			RHEE			
		X1	Y1	Z1	X2	Y2	Z2	X3	Y3	Z3	X4	Y4	Z4	X5	Y5	Z5	X6	Y6	Z6	X7	Y7	Z7	X8	Y8	Z8	X9	Y9	Z9	X10	Y10	Z10	X11	Y11	Z11	X12	Y12	Z12	X13	Y13	Z13	X14	Y14	Z14	X15	Y15	Z15	X16	Y16	Z16	X17	Y17	Z17	X18	Y18	Z18	X19	Y19	Z19	X20	Y20	Z20	X21	Y21	Z21	X22	Y22	Z22	X23	Y23	Z23	X24	Y24	Z24	X25	Y25	Z25	X26	Y26	Z26	X27	Y27	Z27	X28	Y28	Z28	X29	Y29	Z29	X30	Y30	Z30	X31	Y31	Z31	X32	Y32	Z32	X33	Y33	Z33	X34	Y34	Z34	X35	Y35	Z35	X36	Y36	Z36	X37	Y37	Z37	X38	Y38	Z38	X39	Y39	Z39	X40	Y40	Z40	X41	Y41	Z41	X42	Y42	Z42	X43	Y43	Z43	X44	Y44	Z44	X45	Y45	Z45	X46	Y46	Z46	X47	Y47	Z47	X48	Y48	Z48	X49	Y49	Z49	X50	Y50	Z50	X51	Y51	Z51	X52	Y52	Z52	X53	Y53	Z53	

69	0.68	-1692.145141601562	958.0010375976562	-390.0389709472656	-1601.840454101562	951.5330810546875	-501.0913391113281	-1643.869262695312	1055.526611328125	-420.0587768554688	-1424.49658203125	1247.587768554688	-257.8586120605469	-1653.455200195312	1180.96923828125	-431.053955078125	-1607.475219726562	1447.96826171875	-376.8002624511719	-1450.440551757812	1360.869995117188	-281.0073547363281	-1713.53759765625	1328.041625976562	-339.5219421386719	-1574.544555664062	1401.8779296875	-478.358154296875	-1444.610595703125	1421.253173828125	-479.923828125	-1392.3603515625	1305.61865234375	-566.5363159179688	-1352.140869140625	1092.435791015625	-591.6084594726562	-1454.41748046875	1074.716796875	-586.7628784179688	-1308.17578125	888.396484375	-513.0281982421875	-1310.529907226562	875.9491577148438	-586.505126953125	-1326.690063476562	1005.500122070312	-589.3812255859375	-1299.390991210938	725.9200439453125	-521.8180541992188	-1301.01708984375	798.1923217773438	-583.5901489257812	-1288.864868164062	802.69580078125	-512.4417724609375	-1646.325317382812	1414.334716796875	-207.7177734375	-1705.000610351562	1353.177734375	-156.4091033935547	-1728.767578125	1061.261596679688	-112.8217239379883	-1753.59326171875	1046.799682617188	-174.453369140625	-1611.057250976562	859.1791381835938	-115.6010437011719	-1694.957885742188	841.15966796875	-93.85435485839844	-1728.589233398438	1002.474548339844	-104.9174957275391	-1607.044799804688	702.9859619140625	-114.9929656982422	-1599.3896484375	761.9654541015625	-102.9768676757812	-1675.989624023438	754.084716796875	-93.56053924560547	-1570.3271484375	1641.812255859375	-237.9932098388672	-1392.2841796875	1663.90380859375	-342.6954956054688	-1435.322265625	1662.1171875	-219.0779418945312	-1528.195068359375	1648.042358398438	-411.0001525878906	-1414.550537109375	855.0873413085938	-500.6320190429688	-1689.218139648438	853.0885620117188	-208.1306610107422	-1570.417358398438	896.1871948242188	-190.4463500976562	-1397.67919921875	897.0335083007812	-378.89306640625	-1335.584716796875	448.0732421875	-432.8331909179688	-1329.14892578125	605.4893188476562	-437.2174072265625	-1505.76513671875	85.13005828857422	-582.7916259765625	-1378.004516601562	307.1195068359375	-494.6477966308594	-1365.882934570312	42.98477554321289	-393.5498657226562	-1442.379272460938	56.82607650756836	-414.6515502929688	-1379.721801757812	53.40642929077148	-505.6324157714844	-1576.697021484375	102.7022552490234	-552.9067993164062	-1632.807006835938	461.623291015625	-233.1953887939453	-1651.128540039062	718.0066528320312	-178.6651153564453	-1694.660034179688	38.80581283569336	-305.1298217773438	-1638.174682617188	315.1817932128906	-239.3367462158203	-1486.668579101562	49.32709884643555	-226.6868286132812	-1520.023193359375	56.65932083129883	-288.8672485351562	-1597.292236328125	46.41284942626953	-210.6452178955078	-1721.88818359375	29.09721183776855	-378.7997741699219	
70	0.6900000000000001	-1692.034423828125	957.8726196289062	-388.7402954101562	-1601.551025390625	951.0241088867188	-499.6499328613281	-1644.263793945312	1055.759765625	-418.4872131347656	-1423.893432617188	1247.160522460938	-255.6884155273438	-1653.190185546875	1181.206665039062	-428.787109375	-1606.680419921875	1447.933349609375	-373.9533386230469	-1449.678100585938	1360.538452148438	-278.5928039550781	-1712.9501953125	1328.206665039062	-336.8180236816406	-1573.98583984375	1402.1044921875	-475.6983337402344	-1443.95263671875	1421.21337890625	-477.4205017089844	-1392.093139648438	1305.577270507812	-564.2354736328125	-1352.148071289062	1092.437133789062	-589.6343383789062	-1454.405151367188	1074.713745117188	-584.4322509765625	-1307.64990234375	888.55712890625	-511.002685546875	-1310.374389648438	876.0087890625	-584.4707641601562	-1326.68896484375	1005.513366699219	-587.4305419921875	-1298.809936523438	726.0889892578125	-519.6895141601562	-1300.748779296875	798.2803344726562	-581.513427734375	-1288.228271484375	802.9290161132812	-510.3995971679688	-1645.366943359375	1413.971801757812	-204.8822937011719	-1704.00927734375	1352.78662109375	-153.6126098632812	-1728.530151367188	1061.028686523438	-110.0979080200195	-1753.6572265625	1046.675048828125	-171.6119537353516	-1611.715942382812	858.4521484375	-113.4735565185547	-1695.61279296875	840.798583984375	-91.43244934082031	-1728.548095703125	1002.214538574219	-102.2417221069336	-1608.362670898438	702.2490234375	-112.8927230834961	-1600.400756835938	761.1927490234375	-100.9120254516602	-1677.00537109375	753.6321411132812	-91.20199584960938	-1569.285034179688	1641.625	-235.1525115966797	-1391.410400390625	1663.550903320312	-340.145751953125	-1434.276245117188	1661.935546875	-216.4545745849609	-1527.435180664062	1647.637329101562	-408.2274169921875	-1413.432739257812	855.35986328125	-498.6220703125	-1689.127319335938	852.8521728515625	-206.9535217285156	-1570.4052734375	895.9986572265625	-188.9079895019531	-1397.911254882812	897.4727172851562	-377.13916015625	-1327.903198242188	450.5586853027344	-425.9781188964844	-1323.766723632812	608.0364990234375	-431.5025024414062	-1503.164794921875	91.61797332763672	-580.6970825195312	-1372.00048828125	310.1932067871094	-489.2063598632812	-1364.536254882812	43.00908279418945	-392.6568908691406	-1440.645874023438	58.31841659545898	-413.0756530761719	-1378.321899414062	55.35341262817383	-504.0750122070312	-1573.677001953125	110.3346633911133	-550.4949340820312	-1632.903686523438	461.4756164550781	-232.5511169433594	-1651.151977539062	717.7669677734375	-177.6619415283203	-1694.688598632812	38.78919219970703	-305.1396484375	-1638.268798828125	314.9888000488281	-238.9523315429688	-1486.72216796875	49.35004806518555	-226.6642913818359	-1520.036376953125	56.63485717773438	-288.8780212402344	-1597.332153320312	46.39085006713867	-210.6295928955078	-1721.8837890625	29.08583641052246	-378.8335266113281	
71	0.7000000000000001	-1691.702880859375	957.8251342773438	-387.4478454589844	-1601.012451171875	950.7235107421875	-498.1885070800781	-1644.5166015625	1056.08203125	-416.9713134765625	-1423.1640625	1246.827270507812	-253.5672912597656	-1652.783935546875	1181.472534179688	-426.5708618164062	-1605.76318359375	1447.936889648438	-371.1316223144531	-1448.801513671875	1360.290283203125	-276.2363891601562	-1712.236083984375	1328.423461914062	-334.1343688964844	-1573.3232421875	1402.3916015625	-473.0702514648438	-1443.203857421875	1421.270874023438	-474.9656372070312	-1391.731079101562	1305.641479492188	-561.9939575195312	-1352.141723632812	1092.496704101562	-587.6607666015625	-1454.386352539062	1074.805297851562	-582.0592041015625	-1307.18310546875	888.7786254882812	-508.9449768066406	-1310.259643554688	876.0990600585938	-582.3873291015625	-1326.682861328125	1005.573425292969	-585.4628295898438	-1298.367553710938	726.324951171875	-517.4601440429688	-1300.588623046875	798.3958740234375	-579.3731689453125	-1287.6357421875	803.2039184570312	-508.28662109375	-1644.29150390625	1413.702514648438	-202.0988616943359	-1702.89599609375	1352.505126953125	-150.8505401611328	-1728.197875976562	1060.941284179688	-107.391975402832	-1753.591430664062	1046.705932617188	-168.814208984375	-1612.386352539062	857.794921875	-111.2437744140625	-1696.31005859375	840.5863647460938	-88.96582794189453	-1728.438842773438	1002.105102539062	-99.56929016113281	-1609.81787109375	701.5912475585938	-110.6647109985352	-1601.510986328125	760.4866943359375	-98.70673370361328	-1678.120239257812	753.3019409179688	-88.77207946777344	-1568.11181640625	1641.491577148438	-232.3089752197266	-1390.38427734375	1663.234252929688	-337.5540771484375	-1433.075073242188	1661.751953125	-213.8092346191406	-1526.515747070312	1647.338623046875	-405.434814453125	-1412.108642578125	855.8135986328125	-496.5768737792969	-1688.935791015625	852.6403198242188	-205.8370666503906	-1570.291625976562	895.8434448242188	-187.3731079101562	-1397.939697265625	898.0598754882812	-375.3218688964844	-1320.401733398438	453.199951171875	-419.0880737304688	-1318.527709960938	610.7456665039062	-425.8624267578125	-1500.20068359375	98.06691741943359	-578.16552734375	-1365.947509765625	313.3512573242188	-483.5172424316406	-1362.734985351562	43.24727630615234	-391.3221740722656	-1438.526733398438	60.13916778564453	-411.0477294921875	-1376.483154296875	57.74563217163086	-502.0905456542969	-1570.326171875	117.6772232055664	-547.6842041015625	-1633.041137695312	461.3611755371094	-231.9698944091797	-1651.11865234375	717.5214233398438	-176.7046813964844	-1694.722045898438	38.75617599487305	-305.1378173828125	-1638.400390625	314.8330383300781	-238.6050109863281	-1486.78759765625	49.37281799316406	-226.6250152587891	-1520.069580078125	56.63648986816406	-288.8554992675781	-1597.382080078125	46.35885620117188	-210.6007385253906	-1721.874755859375	29.07563209533691	-378.8661193847656	
72	0.71	-1691.127685546875	957.8387451171875	-386.1859436035156	-1600.198608398438	950.5929565429688	-496.7265930175781	-1644.568725585938	1056.460571289062	-415.4927673339844	-1422.31005859375	1246.579833984375	-251.4844818115234	-1652.231201171875	1181.763916015625	-424.4107360839844	-1604.723022460938	1447.97705078125	-368.3393859863281	-1447.809936523438	1360.119506835938	-273.9293823242188	-1711.389038085938	1328.6806640625	-331.4775695800781	-1572.54443359375	1402.728271484375	-470.4734497070312	-1442.362915039062	1421.417846679688	-472.554931640625	-1391.275390625	1305.80615234375	-559.8096313476562	-1352.114501953125	1092.606567382812	-585.6990356445312	-1454.352661132812	1074.984497070312	-579.6592407226562	-1306.783081054688	889.0602416992188	-506.8622131347656	-1310.183349609375	876.2144165039062	-580.2606201171875	-1326.66162109375	1005.674499511719	-583.4862060546875	-1298.056274414062	726.6226196289062	-515.1261596679688	-1300.531005859375	798.5309448242188	-577.1668090820312	-1287.081665039062	803.5062255859375	-506.1026916503906	-1643.100219726562	1413.523315429688	-199.3679046630859	-1701.666259765625	1352.332397460938	-148.1246948242188	-1727.77392578125	1060.99072265625	-104.710563659668	-1753.3896484375	1046.877685546875	-166.0619201660156	-1613.058715820312	857.2086181640625	-108.9119567871094	-1697.039306640625	840.5111083984375	-86.46302795410156	-1728.267700195312	1002.136291503906	-96.90720367431641	-1611.39013671875	701.0142822265625	-108.3197937011719	-1602.709838867188	759.85009765625	-96.36660766601562	-1679.321899414062	753.0894775390625	-86.28817749023438	-1566.805419921875	1641.414794921875	-229.4696350097656	-1389.200317382812	1662.94921875	-334.9230651855469	-1431.711181640625	1661.560913085938	-211.1432037353516	-1525.423583984375	1647.150024414062	-402.6249389648438	-1410.54150390625	856.426025390625	-494.4884338378906	-1688.634033203125	852.4542846679688	-204.7984313964844	-1570.072265625	895.7111206054688	-185.8360137939453	-1397.74169921875	898.7619018554688	-373.4275817871094	-1313.156860351562	455.9447631835938	-412.23046875	-1313.453002929688	613.5606689453125	-420.3168640136719	-1496.880493164062	104.2882308959961	-575.1361083984375	-1359.910034179688	316.5315246582031	-477.6414794921875	-1360.362548828125	43.79571151733398	-389.4440002441406	-1435.921142578125	62.2969970703125	-408.5003051757812	-1374.10205078125	60.5679817199707	-499.6079406738281	-1566.677978515625	124.5209426879883	-544.4166870117188	-1633.21484375	461.2755737304688	-231.4382171630859	-1651.041137695312	717.2835693359375	-175.8020324707031	-1694.7685546875	38.7152214050293	-305.1298828125	-1638.569091796875	314.7123718261719	-238.2925567626953	-1486.8662109375	49.3956413269043	-226.5674438476562	-1520.123168945312	56.66166687011719	-288.8005676269531	-1597.441040039062	46.31399154663086	-210.5600280761719	-1721.862670898438	29.06410217285156	-378.8995361328125	
